<?xml version="1.0" encoding="utf-8"?>
<!-- Generator: Adobe Illustrator 19.0.0, SVG Export Plug-In . SVG Version: 6.00 Build 0)  -->
<svg version="1.1" id="Layer_1" xmlns="http://www.w3.org/2000/svg" xmlns:xlink="http://www.w3.org/1999/xlink" x="0px" y="0px"
	 viewBox="0 0 96 96" style="enable-background:new 0 0 96 96;" xml:space="preserve">
<style type="text/css">
	.st0{fill:#333333;}
</style>
<g id="XMLID_2_">
	<path id="XMLID_10_" class="st0" d="M60.5,30.5h-35c-2.8,0-5,2.2-5,5V58h5c0,4.1,3.4,7.5,7.5,7.5s7.5-3.4,7.5-7.5h13.8
		c0,4.1,3.4,7.5,7.5,7.5s7.5-3.4,7.5-7.5h6.3V45.5L60.5,30.5z M25.5,45.5v-10h10v10H25.5z M33,61.8c-2.1,0-3.8-1.7-3.8-3.8
		s1.7-3.8,3.8-3.8s3.8,1.7,3.8,3.8S35.1,61.8,33,61.8z M50.5,45.5h-10v-10h10V45.5z M61.8,61.8c-2.1,0-3.8-1.7-3.8-3.8
		s1.7-3.8,3.8-3.8s3.8,1.7,3.8,3.8S63.8,61.8,61.8,61.8z M55.5,45.5v-10H58l10,10H55.5z"/>
</g>
</svg>
