
<svg width="56px" height="35px" viewBox="0 0 56 35" version="1.1" xmlns="http://www.w3.org/2000/svg" xmlns:xlink="http://www.w3.org/1999/xlink">
    <g id="Welcome" stroke="none" stroke-width="1" fill="none" fill-rule="evenodd">
        <g id="Desktop" transform="translate(-30.000000, -16.000000)" fill="#FFFFFF" fill-rule="nonzero">
            <g id="Navbar">
                <path d="M70,16 L35,16 C32.2,16 30,18.2 30,21 L30,43.5 L35,43.5 C35,47.6 38.4,51 42.5,51 C46.6,51 50,47.6 50,43.5 L63.8,43.5 C63.8,47.6 67.2,51 71.3,51 C75.4,51 78.8,47.6 78.8,43.5 L85.1,43.5 L85.1,31 L70,16 Z M35,31 L35,21 L45,21 L45,31 L35,31 Z M42.5,47.3 C40.4,47.3 38.7,45.6 38.7,43.5 C38.7,41.4 40.4,39.7 42.5,39.7 C44.6,39.7 46.3,41.4 46.3,43.5 C46.3,45.6 44.6,47.3 42.5,47.3 Z M60,31 L50,31 L50,21 L60,21 L60,31 Z M71.3,47.3 C69.2,47.3 67.5,45.6 67.5,43.5 C67.5,41.4 69.2,39.7 71.3,39.7 C73.4,39.7 75.1,41.4 75.1,43.5 C75.1,45.6 73.3,47.3 71.3,47.3 Z M65,31 L65,21 L67.5,21 L77.5,31 L65,31 Z" id="Bus-Shuttle"></path>
            </g>
        </g>
    </g>
</svg>