<?xml version="1.0" encoding="UTF-8"?>
<svg version="1.1" viewBox="0 0 56 35" xmlns="http://www.w3.org/2000/svg">
<defs>
<radialGradient id="a" cx="97.187%" cy="16.051%" r="98.073%" gradientTransform="translate(.97187 .16051) scale(.63521 1) rotate(164.62) translate(-.97187 -.16051)">
<stop stop-color="#0AEEC0" offset="0"/>
<stop stop-color="#C21ED2" offset=".9996"/>
</radialGradient>
</defs>
<g fill="none" fill-rule="evenodd">
<g transform="translate(-357 -417)" fill="url(#a)" fill-rule="nonzero">
<path d="m397 417h-35c-2.8 0-5 2.2-5 5v22.5h5c0 4.1 3.4 7.5 7.5 7.5s7.5-3.4 7.5-7.5h13.8c0 4.1 3.4 7.5 7.5 7.5s7.5-3.4 7.5-7.5h6.3v-12.5l-15.1-15zm-35 15v-10h10v10h-10zm7.5 16.3c-2.1 0-3.8-1.7-3.8-3.8s1.7-3.8 3.8-3.8 3.8 1.7 3.8 3.8-1.7 3.8-3.8 3.8zm17.5-16.3h-10v-10h10v10zm11.3 16.3c-2.1 0-3.8-1.7-3.8-3.8s1.7-3.8 3.8-3.8 3.8 1.7 3.8 3.8-1.8 3.8-3.8 3.8zm-6.3-16.3v-10h2.5l10 10h-12.5z"/>
</g>
</g>
</svg>
