<?xml version="1.0" encoding="UTF-8"?>
<svg version="1.1" viewBox="0 0 53 36" xmlns="http://www.w3.org/2000/svg">
<defs>
<radialGradient id="a" cx="100%" cy="100%" r="138.19%" gradientTransform="translate(1 1) scale(.67924 1) rotate(-90) translate(-1 -1)">
<stop stop-color="#0AEEC0" offset="0"/>
<stop stop-color="#C21ED2" offset="1"/>
</radialGradient>
</defs>
<g fill="none" fill-rule="evenodd">
<g transform="translate(-429 -416)" fill="url(#a)" fill-rule="nonzero">
<path transform="translate(455.5 434) scale(-1 1) rotate(180) translate(-455.5 -434)" d="m442.15 416.15c2.7129 0.37797 5.2072 1.3679 7.3604 2.9248 0.58962 0.42596 0.95069 0.74094 4.7634 4.1697 2.968 2.6698 3.6769 3.2907 3.7597 3.3027 0.056313 6e-3 3.0906 0.24298 6.7442 0.52496 3.6537 0.28198 6.8668 0.53696 7.1418 0.56995 3.3489 0.39597 6.4494 1.8808 8.6721 4.1547 0.45712 0.46496 0.954 1.0619 1.272 1.5209l0.13912 0.20398v0.95992l-0.13912 0.20398c-0.795 1.1489-2.0008 2.3308-3.2595 3.1917-1.8881 1.2929-4.0711 2.1268-6.4395 2.4538-0.45381 0.062994-0.69894 0.083993-8.6721 0.70194l-5.5451 0.42896-3.5013 3.1617c-3.9916 3.6057-4.3725 3.9327-5.3861 4.6166-1.9312 1.3079-4.2566 2.2108-6.5886 2.5648-1.219 0.18298-0.94406 0.17399-5.7406 0.18598l-4.4156 0.011999v-9.0022h-3.3125v-4.4996h1.6562v-8.9992h-1.6562v-4.4996h3.3125v-8.9992l5.8678 8.4e-4c2.7791 0.003997 3.1027 0.026308 3.9671 0.14615zm-4.0466 2.8529-2.4757-1.23e-4v10.499h-1.6562v8.9992h1.6562v10.505l2.5771-0.014999c2.1134-0.011999 2.6467-0.023998 2.9879-0.062995 1.5801-0.18598 2.7527-0.49796 4.0578-1.0829 1.0401-0.46796 1.8616-0.97192 2.7262-1.6709 0.15238-0.12299 1.3648-1.2209 2.6964-2.4418l2.4181-2.2168-3.763-0.008999-3.763-6e-3v-2.9998h11.481l7.0026-0.52496c3.8524-0.28798 7.1318-0.53696 7.2875-0.55495 1.7092-0.19798 3.4417-0.88493 4.9224-1.9528 0.61612-0.44396 1.6695-1.3679 1.6695-1.4669 0-0.092992-1.0335-1.0049-1.6066-1.4219-1.5337-1.1129-3.2462-1.7969-4.9853-1.9978-0.15569-0.017998-3.4682-0.26698-7.367-0.55495l-7.0854-0.52496h-11.319v-2.9998l3.763-0.005999 3.763-9e-3 -2.4181-2.2168c-1.3316-1.2209-2.544-2.3188-2.6964-2.4418-1.8384-1.4909-4.081-2.4268-6.519-2.7208-0.67172-0.080341-1.3646-0.10305-3.3543-0.10487zm33.962 13.499v2.9998h-3.3125v-2.9998h3.3125zm-29.812-10.499v4.4996h-3.3125v-4.4996h3.3125z"/>
</g>
</g>
</svg>
